<svg width="22" height="18" viewBox="0 0 22 18" fill="none" xmlns="http://www.w3.org/2000/svg">
<path d="M21.125 6L18.505 7" stroke="#4E5D78" stroke-width="1.5" stroke-linecap="round" stroke-linejoin="round"/>
<path d="M3.755 7L1.125 6" stroke="#4E5D78" stroke-width="1.5" stroke-linecap="round" stroke-linejoin="round"/>
<path d="M18.504 7L17.665 2.988C17.422 1.83 16.401 1 15.217 1H7.13701C5.97601 1 4.96701 1.8 4.70301 2.931L3.75201 7" stroke="#4E5D78" stroke-width="1.5" stroke-linecap="round" stroke-linejoin="round"/>
<path fill-rule="evenodd" clip-rule="evenodd" d="M2.375 17H4.625C5.453 17 6.125 16.328 6.125 15.5V14.5H16.125V15.5C16.125 16.328 16.797 17 17.625 17H19.875C20.565 17 21.125 16.44 21.125 15.75V10C21.125 8.343 19.782 7 18.125 7H4.125C2.468 7 1.125 8.343 1.125 10V15.75C1.125 16.44 1.685 17 2.375 17Z" stroke="#4E5D78" stroke-width="1.5" stroke-linecap="round" stroke-linejoin="round"/>
<path d="M17.375 11H14.875" stroke="#4E5D78" stroke-width="1.5" stroke-linecap="round" stroke-linejoin="round"/>
<path d="M7.375 11H4.875" stroke="#4E5D78" stroke-width="1.5" stroke-linecap="round" stroke-linejoin="round"/>
</svg>
