<svg width="17" height="16" viewBox="0 0 17 16" fill="none" xmlns="http://www.w3.org/2000/svg">
<path d="M9.48963 6.82147C10.1405 7.47234 10.1405 8.52762 9.48963 9.17849C8.83876 9.82936 7.78348 9.82936 7.13261 9.17849C6.48174 8.52761 6.48174 7.47234 7.13261 6.82147C7.78348 6.17059 8.83876 6.17059 9.48963 6.82147" stroke="#B1B5BA" stroke-width="1.5" stroke-linecap="round" stroke-linejoin="round"/>
<path fill-rule="evenodd" clip-rule="evenodd" d="M13.6444 12.4447H2.97776C2.24109 12.4447 1.64442 11.848 1.64442 11.1113V4.88866C1.64442 4.152 2.24109 3.55533 2.97776 3.55533H13.6444C14.3811 3.55533 14.9778 4.152 14.9778 4.88866V11.1107C14.9778 11.8473 14.3811 12.4447 13.6444 12.4447V12.4447Z" stroke="#B1B5BA" stroke-width="1.5" stroke-linecap="round" stroke-linejoin="round"/>
<path d="M11.6444 10.6667C12.3811 10.6667 12.9778 10.07 12.9778 9.33334" stroke="#B1B5BA" stroke-width="1.5" stroke-linecap="round" stroke-linejoin="round"/>
<path d="M12.9778 6.66668C12.9778 5.93001 12.3811 5.33334 11.6444 5.33334" stroke="#B1B5BA" stroke-width="1.5" stroke-linecap="round" stroke-linejoin="round"/>
<path d="M4.97776 5.33334C4.24109 5.33334 3.64442 5.93001 3.64442 6.66668" stroke="#B1B5BA" stroke-width="1.5" stroke-linecap="round" stroke-linejoin="round"/>
<path d="M3.64442 9.33334C3.64442 10.07 4.24109 10.6667 4.97776 10.6667" stroke="#B1B5BA" stroke-width="1.5" stroke-linecap="round" stroke-linejoin="round"/>
</svg>
