<svg width="25" height="26" viewBox="0 0 25 26" fill="none" xmlns="http://www.w3.org/2000/svg">
<rect x="3.62125" y="3.99625" width="18.0075" height="18.0075" rx="5" stroke="#15A9BE" stroke-width="1.5" stroke-linecap="round" stroke-linejoin="round"/>
<path d="M16.8768 13C16.8768 13.1381 16.7648 13.2501 16.6267 13.2501C16.4885 13.2501 16.3766 13.1381 16.3766 13C16.3766 12.8619 16.4885 12.7499 16.6267 12.7499V12.7499C16.7648 12.7499 16.8768 12.8619 16.8768 13" stroke="#15A9BE" stroke-width="1.5" stroke-linecap="round" stroke-linejoin="round"/>
<path d="M8.87344 13C8.87344 13.1381 8.76146 13.2501 8.62333 13.2501C8.4852 13.2501 8.37323 13.1381 8.37323 13C8.37323 12.8619 8.4852 12.7499 8.62333 12.7499V12.7499C8.76146 12.7499 8.87344 12.8619 8.87344 13" stroke="#15A9BE" stroke-width="1.5" stroke-linecap="round" stroke-linejoin="round"/>
<path d="M12.8751 13C12.8751 13.1381 12.7631 13.2501 12.625 13.2501C12.4869 13.2501 12.3749 13.1381 12.3749 13C12.3749 12.8619 12.4869 12.7499 12.625 12.7499V12.7499C12.7631 12.7499 12.8751 12.8619 12.8751 13" stroke="#15A9BE" stroke-width="1.5" stroke-linecap="round" stroke-linejoin="round"/>
</svg>
