<svg width="25" height="24" viewBox="0 0 25 24" fill="none" xmlns="http://www.w3.org/2000/svg">
<path d="M22.125 9L19.505 10" stroke="#15A9BE" stroke-width="1.5" stroke-linecap="round" stroke-linejoin="round"/>
<path d="M4.755 10L2.125 9" stroke="#15A9BE" stroke-width="1.5" stroke-linecap="round" stroke-linejoin="round"/>
<path d="M19.504 10L18.665 5.988C18.422 4.83 17.401 4 16.217 4H8.13701C6.97601 4 5.96701 4.8 5.70301 5.931L4.75201 10" stroke="#15A9BE" stroke-width="1.5" stroke-linecap="round" stroke-linejoin="round"/>
<path fill-rule="evenodd" clip-rule="evenodd" d="M3.375 20H5.625C6.453 20 7.125 19.328 7.125 18.5V17.5H17.125V18.5C17.125 19.328 17.797 20 18.625 20H20.875C21.565 20 22.125 19.44 22.125 18.75V13C22.125 11.343 20.782 10 19.125 10H5.125C3.468 10 2.125 11.343 2.125 13V18.75C2.125 19.44 2.685 20 3.375 20Z" stroke="#15A9BE" stroke-width="1.5" stroke-linecap="round" stroke-linejoin="round"/>
<path d="M18.375 14H15.875" stroke="#15A9BE" stroke-width="1.5" stroke-linecap="round" stroke-linejoin="round"/>
<path d="M8.375 14H5.875" stroke="#15A9BE" stroke-width="1.5" stroke-linecap="round" stroke-linejoin="round"/>
</svg>
